<?xml version="1.0" encoding="utf-8"?>
<svg xmlns="http://www.w3.org/2000/svg" viewBox="-204.054 -201.481 919.878 916.787" xmlns:bx="https://boxy-svg.com">
  <defs>
    <linearGradient id="overlay-grad" x1="18%" y1="12%" x2="82%" y2="88%">
      <stop offset="0" stop-color="rgba(0, 0, 0, 1)" stop-opacity="1"/>
      <stop offset="0.55" stop-color="rgba(0, 0, 0, 0.76)" stop-opacity="1"/>
    </linearGradient>
  </defs>
  <rect width="920" height="920" rx="230" fill="rgb(255, 255, 255)" x="-204" y="-204"/>
  <rect width="920" height="920" rx="230" fill="url(#overlay-grad)" x="-204" y="-204"/>
  <path d="M 73.866 469.266 L 73.866 499.603 C 73.866 508.198 70.959 515.403 65.144 521.217 C 59.328 527.031 52.124 529.939 43.53 529.939 C 34.938 529.939 27.732 527.031 21.916 521.217 C 16.099 515.403 13.194 508.198 13.194 499.603 L 13.194 14.221 C 13.194 5.626 16.099 -1.58 21.916 -7.394 C 27.732 -13.205 34.938 -16.117 43.53 -16.117 C 52.124 -16.117 59.328 -13.205 65.144 -7.394 C 70.959 -1.58 73.866 5.626 73.866 14.221 L 73.866 44.557 L 134.539 44.557 L 134.539 14.221 C 134.539 5.626 137.447 -1.58 143.26 -7.394 C 149.076 -13.205 156.28 -16.117 164.876 -16.117 L 346.894 -16.117 C 355.488 -16.117 362.693 -13.205 368.508 -7.394 C 374.322 -1.58 377.229 5.626 377.229 14.221 L 377.229 44.557 L 437.902 44.557 L 437.902 14.221 C 437.902 5.626 440.809 -1.58 446.623 -7.394 C 452.439 -13.205 459.643 -16.117 468.239 -16.117 C 476.834 -16.117 484.039 -13.205 489.853 -7.394 C 495.667 -1.58 498.575 5.626 498.575 14.221 L 498.575 499.603 C 498.575 508.198 495.667 515.403 489.853 521.217 C 484.039 527.031 476.834 529.939 468.239 529.939 C 459.643 529.939 452.439 527.031 446.623 521.217 C 440.809 515.403 437.902 508.198 437.902 499.603 L 437.902 469.266 L 377.229 469.266 L 377.229 499.603 C 377.229 508.198 374.322 515.403 368.508 521.217 C 362.693 527.031 355.488 529.939 346.894 529.939 L 164.876 529.939 C 156.28 529.939 149.076 527.031 143.26 521.217 C 137.447 515.403 134.539 508.198 134.539 499.603 L 134.539 469.266 L 73.866 469.266 Z M 73.866 408.593 L 134.539 408.593 L 134.539 347.922 L 73.866 347.922 L 73.866 408.593 Z M 73.866 287.249 L 134.539 287.249 L 134.539 226.576 L 73.866 226.576 L 73.866 287.249 Z M 73.866 165.903 L 134.539 165.903 L 134.539 105.23 L 73.866 105.23 L 73.866 165.903 Z M 377.229 408.593 L 437.902 408.593 L 437.902 347.922 L 377.229 347.922 L 377.229 408.593 Z M 377.229 287.249 L 437.902 287.249 L 437.902 226.576 L 377.229 226.576 L 377.229 287.249 Z M 377.229 165.903 L 437.902 165.903 L 437.902 105.23 L 377.229 105.23 L 377.229 165.903 Z" fill="#fff"/>
</svg>
